<svg xmlns="http://www.w3.org/2000/svg" viewBox="0 0 32 32" width="32" height="32">
  <defs>
    <!-- Red chili pepper gradient -->
    <linearGradient id="pepperGradient" x1="0%" y1="0%" x2="100%" y2="100%">
      <stop offset="0%" style="stop-color:#ff5555;stop-opacity:1" />
      <stop offset="30%" style="stop-color:#e53e3e;stop-opacity:1" />
      <stop offset="70%" style="stop-color:#dc2626;stop-opacity:1" />
      <stop offset="100%" style="stop-color:#991b1b;stop-opacity:1" />
    </linearGradient>

    <!-- Green stem gradient -->
    <linearGradient id="stemGradient" x1="0%" y1="0%" x2="100%" y2="100%">
      <stop offset="0%" style="stop-color:#22c55e;stop-opacity:1" />
      <stop offset="100%" style="stop-color:#15803d;stop-opacity:1" />
    </linearGradient>

    <!-- Highlight gradient -->
    <linearGradient id="highlight" x1="0%" y1="0%" x2="70%" y2="70%">
      <stop offset="0%" style="stop-color:#fca5a5;stop-opacity:0.8" />
      <stop offset="100%" style="stop-color:#fca5a5;stop-opacity:0" />
    </linearGradient>
  </defs>

  <!-- White background circle for better contrast -->
  <circle cx="16" cy="16" r="15.5" fill="#ffffff" stroke="#e5e7eb" stroke-width="1"/>

  <!-- Main chili pepper body -->
  <path d="M16 6.5
           C18.5 6.5, 21 8, 21.5 11
           C22 14, 21.5 17, 20.5 20
           C19.5 23, 18 25.5, 16.5 26.5
           C15 27.5, 13.5 27, 12.5 25.5
           C11.5 24, 11 21.5, 11.5 19
           C12 16.5, 12.5 14, 12.5 11.5
           C12.5 9, 14 6.5, 16 6.5 Z"
        fill="url(#pepperGradient)"/>

  <!-- Chili pepper highlight -->
  <ellipse cx="17" cy="12" rx="2" ry="6"
           fill="url(#highlight)"
           transform="rotate(10 17 12)"/>

  <!-- Green stem -->
  <path d="M16 6.5
           C16.5 5.5, 17 4.5, 17.5 4
           C18 3.5, 18.5 3.2, 19 3.5
           C19.2 3.7, 19 4, 18.5 4.5
           C18 5, 17.5 5.5, 17 6
           C16.5 6.2, 16.2 6.3, 16 6.5"
        fill="url(#stemGradient)"/>

  <path d="M16 6.5
           C15.5 5.5, 15 4.5, 14.5 4
           C14 3.5, 13.5 3.2, 13 3.5
           C12.8 3.7, 13 4, 13.5 4.5
           C14 5, 14.5 5.5, 15 6
           C15.5 6.2, 15.8 6.3, 16 6.5"
        fill="url(#stemGradient)"/>

  <!-- Small leaf details on stem -->
  <ellipse cx="15.2" cy="4.8" rx="0.8" ry="0.4" fill="#16a34a" transform="rotate(-20 15.2 4.8)"/>
  <ellipse cx="16.8" cy="4.8" rx="0.8" ry="0.4" fill="#16a34a" transform="rotate(20 16.8 4.8)"/>

  <!-- Subtle shadow/depth -->
  <path d="M13 10
           C13 12, 13.2 14, 13.5 16
           C13.8 18, 14 20, 14.2 22
           C14.4 24, 14.5 25.5, 14.8 26"
        fill="none"
        stroke="#991b1b"
        stroke-width="0.5"
        opacity="0.6"/>
</svg>
